<svg class="main-svg" xmlns="http://www.w3.org/2000/svg" xmlns:xlink="http://www.w3.org/1999/xlink" width="2400" height="1600" style="" viewBox="0 0 1200 800"><rect x="0" y="0" width="1200" height="800" style="fill: rgb(243, 243, 238); fill-opacity: 1;"/><defs id="defs-565507"><g class="clips"><clipPath id="clip565507polar-for-traces"><path d="M286,0A286,286 0,1,0 -286,-3.50248984556143e-14A286,286 0,1,0 286,7.00497969112286e-14Z" transform="translate(286,286)"/></clipPath></g><g class="gradients"/><g class="patterns"/></defs><g class="bglayer"/><g class="layer-below"><g class="imagelayer"/><g class="shapelayer"/></g><g class="cartesianlayer"/><g class="polarlayer"><g class="polar"><g class="polarsublayer draglayer"/><g class="polarsublayer plotbg"><path d="M286,0A286,286 0,1,0 -286,-3.50248984556143e-14A286,286 0,1,0 286,7.00497969112286e-14Z" transform="translate(600,434)" style="fill: rgb(255, 255, 255); fill-opacity: 1;"/></g><g class="polarsublayer backplot"><g class="maplayer"/></g><g class="polarsublayer angular-grid" style="fill: none;"><path class="angularaxisgrid" d="M600,434L886,434" style="stroke: rgb(180, 180, 180); stroke-opacity: 1; stroke-width: 1px;"/><path class="angularaxisgrid" d="M600,434L600,148" style="stroke: rgb(180, 180, 180); stroke-opacity: 1; stroke-width: 1px;"/><path class="angularaxisgrid" d="M600,434L314,433.99999999999994" style="stroke: rgb(180, 180, 180); stroke-opacity: 1; stroke-width: 1px;"/><path class="angularaxisgrid" d="M600,434L600,720" style="stroke: rgb(180, 180, 180); stroke-opacity: 1; stroke-width: 1px;"/></g><g class="polarsublayer radial-grid" transform="translate(600,434)" style="fill: none;"><path class="xgrid" d="M57.2,0A57.2,57.2 0,1,0 -57.2,-7.0049796911228604e-15A57.2,57.2 0,1,0 57.2,1.4009959382245721e-14Z" style="stroke: rgb(180, 180, 180); stroke-opacity: 1; stroke-width: 1px;"/><path class="xgrid" d="M114.4,0A114.4,114.4 0,1,0 -114.4,-1.4009959382245721e-14A114.4,114.4 0,1,0 114.4,2.8019918764491442e-14Z" style="stroke: rgb(180, 180, 180); stroke-opacity: 1; stroke-width: 1px;"/><path class="xgrid" d="M171.6,0A171.6,171.6 0,1,0 -171.6,-2.101493907336858e-14A171.6,171.6 0,1,0 171.6,4.202987814673716e-14Z" style="stroke: rgb(180, 180, 180); stroke-opacity: 1; stroke-width: 1px;"/><path class="xgrid" d="M228.8,0A228.8,228.8 0,1,0 -228.8,-2.8019918764491442e-14A228.8,228.8 0,1,0 228.8,5.6039837528982883e-14Z" style="stroke: rgb(180, 180, 180); stroke-opacity: 1; stroke-width: 1px;"/></g><g class="polarsublayer frontplot" transform="translate(314,148)"><g class="barlayer"/><g class="scatterlayer"><g class="trace scatter trace25ca22" style="stroke-miterlimit: 2; opacity: 0.6;"><g class="fills" clip-path="url(#clip565507polar-for-traces)"><g><path class="js-fill" d="M486.2,286L286,257.4L28.6,286L286,514.8Z" style="fill: rgb(31, 184, 205); fill-opacity: 1; stroke-width: 0;"/></g></g><g class="errorbars"/><g class="lines"><path class="js-line" d="M486.2,286L286,257.4L28.6,286L286,514.8" clip-path="url(#clip565507polar-for-traces)" style="vector-effect: none; fill: none; stroke: rgb(31, 184, 205); stroke-opacity: 1; stroke-width: 3px; opacity: 1;"/></g><g class="points"><path class="point" transform="translate(486.2,286)" d="M3,0A3,3 0 1,1 0,-3A3,3 0 0,1 3,0Z" style="opacity: 1; stroke-width: 0px; fill: rgb(31, 184, 205); fill-opacity: 1;"/><path class="point" transform="translate(286,257.4)" d="M3,0A3,3 0 1,1 0,-3A3,3 0 0,1 3,0Z" style="opacity: 1; stroke-width: 0px; fill: rgb(31, 184, 205); fill-opacity: 1;"/><path class="point" transform="translate(28.6,286)" d="M3,0A3,3 0 1,1 0,-3A3,3 0 0,1 3,0Z" style="opacity: 1; stroke-width: 0px; fill: rgb(31, 184, 205); fill-opacity: 1;"/><path class="point" transform="translate(286,514.8)" d="M3,0A3,3 0 1,1 0,-3A3,3 0 0,1 3,0Z" style="opacity: 1; stroke-width: 0px; fill: rgb(31, 184, 205); fill-opacity: 1;"/></g><g class="text"/></g><g class="trace scatter trace0790ec" style="stroke-miterlimit: 2; opacity: 0.6;"><g class="fills" clip-path="url(#clip565507polar-for-traces)"><g><path class="js-fill" d="M572,286L286,257.4L171.6,286L286,429Z" style="fill: rgb(219, 69, 69); fill-opacity: 1; stroke-width: 0;"/></g></g><g class="errorbars"/><g class="lines"><path class="js-line" d="M572,286L286,257.4L171.6,286L286,429" clip-path="url(#clip565507polar-for-traces)" style="vector-effect: none; fill: none; stroke: rgb(219, 69, 69); stroke-opacity: 1; stroke-width: 3px; opacity: 1;"/></g><g class="points"><path class="point" transform="translate(572,286)" d="M3,0A3,3 0 1,1 0,-3A3,3 0 0,1 3,0Z" style="opacity: 1; stroke-width: 0px; fill: rgb(219, 69, 69); fill-opacity: 1;"/><path class="point" transform="translate(286,257.4)" d="M3,0A3,3 0 1,1 0,-3A3,3 0 0,1 3,0Z" style="opacity: 1; stroke-width: 0px; fill: rgb(219, 69, 69); fill-opacity: 1;"/><path class="point" transform="translate(171.6,286)" d="M3,0A3,3 0 1,1 0,-3A3,3 0 0,1 3,0Z" style="opacity: 1; stroke-width: 0px; fill: rgb(219, 69, 69); fill-opacity: 1;"/><path class="point" transform="translate(286,429)" d="M3,0A3,3 0 1,1 0,-3A3,3 0 0,1 3,0Z" style="opacity: 1; stroke-width: 0px; fill: rgb(219, 69, 69); fill-opacity: 1;"/></g><g class="text"/></g><g class="trace scatter trace891c45" style="stroke-miterlimit: 2; opacity: 0.6;"><g class="fills" clip-path="url(#clip565507polar-for-traces)"><g><path class="js-fill" d="M514.8,286L286,228.8L28.6,286L286,543.4Z" style="fill: rgb(46, 139, 87); fill-opacity: 1; stroke-width: 0;"/></g></g><g class="errorbars"/><g class="lines"><path class="js-line" d="M514.8,286L286,228.8L28.6,286L286,543.4" clip-path="url(#clip565507polar-for-traces)" style="vector-effect: none; fill: none; stroke: rgb(46, 139, 87); stroke-opacity: 1; stroke-width: 3px; opacity: 1;"/></g><g class="points"><path class="point" transform="translate(514.8,286)" d="M3,0A3,3 0 1,1 0,-3A3,3 0 0,1 3,0Z" style="opacity: 1; stroke-width: 0px; fill: rgb(46, 139, 87); fill-opacity: 1;"/><path class="point" transform="translate(286,228.8)" d="M3,0A3,3 0 1,1 0,-3A3,3 0 0,1 3,0Z" style="opacity: 1; stroke-width: 0px; fill: rgb(46, 139, 87); fill-opacity: 1;"/><path class="point" transform="translate(28.6,286)" d="M3,0A3,3 0 1,1 0,-3A3,3 0 0,1 3,0Z" style="opacity: 1; stroke-width: 0px; fill: rgb(46, 139, 87); fill-opacity: 1;"/><path class="point" transform="translate(286,543.4)" d="M3,0A3,3 0 1,1 0,-3A3,3 0 0,1 3,0Z" style="opacity: 1; stroke-width: 0px; fill: rgb(46, 139, 87); fill-opacity: 1;"/></g><g class="text"/></g><g class="trace scatter trace0d92fc" style="stroke-miterlimit: 2; opacity: 0.6;"><g class="fills" clip-path="url(#clip565507polar-for-traces)"><g><path class="js-fill" d="M400.4,286L286,114.4L0,286L286,572Z" style="fill: rgb(93, 135, 143); fill-opacity: 1; stroke-width: 0;"/></g></g><g class="errorbars"/><g class="lines"><path class="js-line" d="M400.4,286L286,114.4L0,286L286,572" clip-path="url(#clip565507polar-for-traces)" style="vector-effect: none; fill: none; stroke: rgb(93, 135, 143); stroke-opacity: 1; stroke-width: 3px; opacity: 1;"/></g><g class="points"><path class="point" transform="translate(400.4,286)" d="M3,0A3,3 0 1,1 0,-3A3,3 0 0,1 3,0Z" style="opacity: 1; stroke-width: 0px; fill: rgb(93, 135, 143); fill-opacity: 1;"/><path class="point" transform="translate(286,114.4)" d="M3,0A3,3 0 1,1 0,-3A3,3 0 0,1 3,0Z" style="opacity: 1; stroke-width: 0px; fill: rgb(93, 135, 143); fill-opacity: 1;"/><path class="point" transform="translate(0,286)" d="M3,0A3,3 0 1,1 0,-3A3,3 0 0,1 3,0Z" style="opacity: 1; stroke-width: 0px; fill: rgb(93, 135, 143); fill-opacity: 1;"/><path class="point" transform="translate(286,572)" d="M3,0A3,3 0 1,1 0,-3A3,3 0 0,1 3,0Z" style="opacity: 1; stroke-width: 0px; fill: rgb(93, 135, 143); fill-opacity: 1;"/></g><g class="text"/></g></g></g><g class="polarsublayer angular-line"><path d="M286,0A286,286 0,1,0 -286,-3.50248984556143e-14A286,286 0,1,0 286,7.00497969112286e-14Z" transform="translate(600,434)" stroke-width="1" style="fill: none; stroke: rgb(68, 68, 68); stroke-opacity: 1;"/></g><g class="polarsublayer radial-line"><line x1="0" y1="0" x2="286" y2="0" transform="translate(600,434)" stroke-width="1" style="fill: none; stroke: rgb(68, 68, 68); stroke-opacity: 1;"/></g><g class="polarsublayer angular-axis"><path class="angularaxistick ticks" d="M0.5,0h5" transform="translate(886,434)" style="stroke: rgb(68, 68, 68); stroke-opacity: 1; stroke-width: 1px;"/><path class="angularaxistick ticks" d="M0.5,0h5" transform="translate(600,148)rotate(-90)" style="stroke: rgb(68, 68, 68); stroke-opacity: 1; stroke-width: 1px;"/><path class="angularaxistick ticks" d="M0.5,0h5" transform="translate(314,433.99999999999994)rotate(-180)" style="stroke: rgb(68, 68, 68); stroke-opacity: 1; stroke-width: 1px;"/><path class="angularaxistick ticks" d="M0.5,0h5" transform="translate(600,720)rotate(-270)" style="stroke: rgb(68, 68, 68); stroke-opacity: 1; stroke-width: 1px;"/><g class="angularaxistick"><text text-anchor="start" x="8.7" y="5.6" transform="translate(886,434)" style="font-family: 'FK Grotesk Neue'; font-size: 16px; fill: rgb(19, 52, 59); fill-opacity: 1; white-space: pre; opacity: 1;">Ease of Use</text></g><g class="angularaxistick"><text text-anchor="middle" x="5.327213576290986e-16" y="-11.899999999999999" transform="translate(600,148)" style="font-family: 'FK Grotesk Neue'; font-size: 16px; fill: rgb(19, 52, 59); fill-opacity: 1; white-space: pre; opacity: 1;">Cost Value</text></g><g class="angularaxistick"><text text-anchor="end" x="-8.7" y="5.599999999999998" transform="translate(314,433.99999999999994)" style="font-family: 'FK Grotesk Neue'; font-size: 16px; fill: rgb(19, 52, 59); fill-opacity: 1; white-space: pre; opacity: 1;">Customization</text></g><g class="angularaxistick"><text text-anchor="middle" x="-1.5981640728872958e-15" y="24.7" transform="translate(600,720)" style="font-family: 'FK Grotesk Neue'; font-size: 16px; fill: rgb(19, 52, 59); fill-opacity: 1; white-space: pre; opacity: 1;">Tech Features</text></g></g><g class="polarsublayer radial-axis" transform="translate(600,434)"><path class="xtick ticks" d="M0,0.5v5" transform="" style="stroke: rgb(68, 68, 68); stroke-opacity: 1; stroke-width: 1px;"/><path class="xtick ticks" d="M0,0.5v5" transform="translate(57.2,0)" style="stroke: rgb(68, 68, 68); stroke-opacity: 1; stroke-width: 1px;"/><path class="xtick ticks" d="M0,0.5v5" transform="translate(114.4,0)" style="stroke: rgb(68, 68, 68); stroke-opacity: 1; stroke-width: 1px;"/><path class="xtick ticks" d="M0,0.5v5" transform="translate(171.6,0)" style="stroke: rgb(68, 68, 68); stroke-opacity: 1; stroke-width: 1px;"/><path class="xtick ticks" d="M0,0.5v5" transform="translate(228.8,0)" style="stroke: rgb(68, 68, 68); stroke-opacity: 1; stroke-width: 1px;"/><path class="xtick ticks" d="M0,0.5v5" transform="translate(286,0)" style="stroke: rgb(68, 68, 68); stroke-opacity: 1; stroke-width: 1px;"/><g class="xtick"><text text-anchor="middle" x="0" y="24.7" transform="" style="font-family: 'FK Grotesk Neue'; font-size: 16px; fill: rgb(19, 52, 59); fill-opacity: 1; white-space: pre; opacity: 1;">0</text></g><g class="xtick"><text text-anchor="middle" x="0" y="24.7" transform="translate(57.2,0)" style="font-family: 'FK Grotesk Neue'; font-size: 16px; fill: rgb(19, 52, 59); fill-opacity: 1; white-space: pre; opacity: 1;">2</text></g><g class="xtick"><text text-anchor="middle" x="0" y="24.7" transform="translate(114.4,0)" style="font-family: 'FK Grotesk Neue'; font-size: 16px; fill: rgb(19, 52, 59); fill-opacity: 1; white-space: pre; opacity: 1;">4</text></g><g class="xtick"><text text-anchor="middle" x="0" y="24.7" transform="translate(171.6,0)" style="font-family: 'FK Grotesk Neue'; font-size: 16px; fill: rgb(19, 52, 59); fill-opacity: 1; white-space: pre; opacity: 1;">6</text></g><g class="xtick"><text text-anchor="middle" x="0" y="24.7" transform="translate(228.8,0)" style="font-family: 'FK Grotesk Neue'; font-size: 16px; fill: rgb(19, 52, 59); fill-opacity: 1; white-space: pre; opacity: 1;">8</text></g><g class="xtick"><text text-anchor="middle" x="0" y="24.7" transform="translate(286,0)" style="font-family: 'FK Grotesk Neue'; font-size: 16px; fill: rgb(19, 52, 59); fill-opacity: 1; white-space: pre; opacity: 1;">10</text></g></g></g></g><g class="smithlayer"/><g class="ternarylayer"/><g class="geolayer"/><g class="funnelarealayer"/><g class="pielayer"/><g class="iciclelayer"/><g class="treemaplayer"/><g class="sunburstlayer"/><g class="glimages"/><defs id="topdefs-565507"><g class="clips"/><clipPath id="legend565507"><rect width="545" height="34" x="0" y="0"/></clipPath></defs><g class="layer-above"><g class="imagelayer"/><g class="shapelayer"/></g><g class="infolayer"><g class="legend" pointer-events="all" transform="translate(327.5,85.39999999999998)"><rect class="bg" shape-rendering="crispEdges" width="545" height="34" x="0" y="0" style="stroke: rgb(68, 68, 68); stroke-opacity: 1; fill: rgb(243, 243, 238); fill-opacity: 1; stroke-width: 0px;"/><g class="scrollbox" transform="" clip-path="url(#legend565507)"><g class="groups"><g class="traces" transform="translate(0,16.9)" style="opacity: 1;"><text class="legendtext" text-anchor="start" x="40" y="6.24" style="font-family: 'FK Grotesk Neue'; font-size: 16px; fill: rgb(19, 52, 59); fill-opacity: 1; white-space: pre;">GitHub Pages</text><g class="layers" style="opacity: 0.6;"><g class="legendfill"><path class="js-fill" d="M5,0h30v6h-30z" style="stroke-width: 0; fill: rgb(31, 184, 205); fill-opacity: 1;"/></g><g class="legendlines"><path class="js-line" d="M5,0h30" style="fill: none; stroke: rgb(31, 184, 205); stroke-opacity: 1; stroke-width: 3px;"/></g><g class="legendsymbols"><g class="legendpoints"><path class="scatterpts" transform="translate(20,0)" d="M3,0A3,3 0 1,1 0,-3A3,3 0 0,1 3,0Z" style="opacity: 1; stroke-width: 0px; fill: rgb(31, 184, 205); fill-opacity: 1;"/></g></g></g><rect class="legendtoggle" x="0" y="-11.9" width="145.6875" height="23.8" style="fill: rgb(0, 0, 0); fill-opacity: 0;"/></g><g class="traces" transform="translate(148.1875,16.9)" style="opacity: 1;"><text class="legendtext" text-anchor="start" x="40" y="6.24" style="font-family: 'FK Grotesk Neue'; font-size: 16px; fill: rgb(19, 52, 59); fill-opacity: 1; white-space: pre;">Google Sites</text><g class="layers" style="opacity: 0.6;"><g class="legendfill"><path class="js-fill" d="M5,0h30v6h-30z" style="stroke-width: 0; fill: rgb(219, 69, 69); fill-opacity: 1;"/></g><g class="legendlines"><path class="js-line" d="M5,0h30" style="fill: none; stroke: rgb(219, 69, 69); stroke-opacity: 1; stroke-width: 3px;"/></g><g class="legendsymbols"><g class="legendpoints"><path class="scatterpts" transform="translate(20,0)" d="M3,0A3,3 0 1,1 0,-3A3,3 0 0,1 3,0Z" style="opacity: 1; stroke-width: 0px; fill: rgb(219, 69, 69); fill-opacity: 1;"/></g></g></g><rect class="legendtoggle" x="0" y="-11.9" width="137.9375" height="23.8" style="fill: rgb(0, 0, 0); fill-opacity: 0;"/></g><g class="traces" transform="translate(288.625,16.9)" style="opacity: 1;"><text class="legendtext" text-anchor="start" x="40" y="6.24" style="font-family: 'FK Grotesk Neue'; font-size: 16px; fill: rgb(19, 52, 59); fill-opacity: 1; white-space: pre;">Netlify</text><g class="layers" style="opacity: 0.6;"><g class="legendfill"><path class="js-fill" d="M5,0h30v6h-30z" style="stroke-width: 0; fill: rgb(46, 139, 87); fill-opacity: 1;"/></g><g class="legendlines"><path class="js-line" d="M5,0h30" style="fill: none; stroke: rgb(46, 139, 87); stroke-opacity: 1; stroke-width: 3px;"/></g><g class="legendsymbols"><g class="legendpoints"><path class="scatterpts" transform="translate(20,0)" d="M3,0A3,3 0 1,1 0,-3A3,3 0 0,1 3,0Z" style="opacity: 1; stroke-width: 0px; fill: rgb(46, 139, 87); fill-opacity: 1;"/></g></g></g><rect class="legendtoggle" x="0" y="-11.9" width="90.859375" height="23.8" style="fill: rgb(0, 0, 0); fill-opacity: 0;"/></g><g class="traces" transform="translate(381.984375,16.9)" style="opacity: 1;"><text class="legendtext" text-anchor="start" x="40" y="6.24" style="font-family: 'FK Grotesk Neue'; font-size: 16px; fill: rgb(19, 52, 59); fill-opacity: 1; white-space: pre;">Własny hosting</text><g class="layers" style="opacity: 0.6;"><g class="legendfill"><path class="js-fill" d="M5,0h30v6h-30z" style="stroke-width: 0; fill: rgb(93, 135, 143); fill-opacity: 1;"/></g><g class="legendlines"><path class="js-line" d="M5,0h30" style="fill: none; stroke: rgb(93, 135, 143); stroke-opacity: 1; stroke-width: 3px;"/></g><g class="legendsymbols"><g class="legendpoints"><path class="scatterpts" transform="translate(20,0)" d="M3,0A3,3 0 1,1 0,-3A3,3 0 0,1 3,0Z" style="opacity: 1; stroke-width: 0px; fill: rgb(93, 135, 143); fill-opacity: 1;"/></g></g></g><rect class="legendtoggle" x="0" y="-11.9" width="159.671875" height="23.8" style="fill: rgb(0, 0, 0); fill-opacity: 0;"/></g></g></g><rect class="scrollbar" rx="20" ry="3" width="0" height="0" x="0" y="0" style="fill: rgb(128, 139, 164); fill-opacity: 1;"/></g><g class="g-gtitle"><text class="gtitle" x="600" y="68" text-anchor="middle" dy="-0.3em" style="opacity: 1; font-family: 'FK Grotesk Neue'; font-size: 28px; fill: rgb(19, 52, 59); fill-opacity: 1; font-weight: 1000; white-space: pre;">HTML Hosting Comparison</text></g><g class="g-polartitle"/></g></svg>